<?xml version="1.0" encoding="utf-8"?>
<!-- Generator: Adobe Illustrator 26.0.1, SVG Export Plug-In . SVG Version: 6.00 Build 0)  -->
<svg version="1.1" id="layer_1" xmlns="http://www.w3.org/2000/svg" xmlns:xlink="http://www.w3.org/1999/xlink" x="0px" y="0px"
	 viewBox="0 0 2936.69 531.84" style="enable-background:new 0 0 2936.69 531.84;" xml:space="preserve">
<style type="text/css">
	.st0{fill:#FFFFFF;}
	.st1{fill:#D36800;}
	.st2{fill:#FCE37A;}
	.st3{fill:#FCEFB1;}
	.st4{fill:#C56D10;}
</style>
<g>
	<g>
		<path class="st0" d="M681.8,370.42c-2.46,0-4.81-0.47-7.05-1.43c-2.24-0.95-4.17-2.21-5.79-3.78c-1.62-1.57-2.91-3.47-3.86-5.71
			c-0.95-2.24-1.43-4.58-1.43-7.05V173.61c0-2.57,0.47-4.95,1.43-7.13c0.95-2.18,2.24-4.08,3.86-5.71c1.62-1.62,3.55-2.88,5.79-3.78
			c2.24-0.89,4.59-1.34,7.05-1.34h77.02c8.28,0,16.02,1.57,23.24,4.7c7.21,3.13,13.51,7.38,18.88,12.75s9.59,11.66,12.67,18.88
			c3.08,7.21,4.61,14.96,4.61,23.24c0,7.72-1.37,15.1-4.11,22.15c-2.74,7.05-6.52,13.42-11.33,19.13
			c7.16,6.15,12.84,13.57,17.03,22.23c4.19,8.67,6.29,18.04,6.29,28.1c0,8.95-1.71,17.28-5.12,25c-3.41,7.72-8.05,14.43-13.93,20.13
			c-5.87,5.71-12.75,10.21-20.64,13.51c-7.89,3.3-16.36,4.95-25.42,4.95H681.8z M700.09,192.06v48.99h57.38
			c3.36-0.11,6.51-0.86,9.48-2.26c2.96-1.4,5.54-3.21,7.72-5.45c2.18-2.24,3.89-4.84,5.12-7.8c1.23-2.96,1.85-6.01,1.85-9.14
			c0-3.36-0.67-6.49-2.01-9.4c-1.34-2.91-3.16-5.48-5.45-7.72c-2.29-2.24-4.95-4-7.97-5.29c-3.02-1.28-6.21-1.93-9.56-1.93H700.09z
			 M700.09,277.47v56.54h59.56c4.14,0,8.02-0.81,11.66-2.43c3.63-1.62,6.82-3.83,9.56-6.63c2.74-2.79,4.89-5.98,6.46-9.56
			c1.56-3.58,2.35-7.33,2.35-11.24c0-4.03-0.81-7.69-2.43-10.99c-1.62-3.3-3.8-6.1-6.54-8.39c-2.74-2.29-5.93-4.08-9.56-5.37
			c-3.64-1.28-7.47-1.93-11.49-1.93H700.09z"/>
		<path class="st0" d="M882.81,308.68c1.45,4.14,3.49,7.92,6.12,11.33c2.63,3.41,5.68,6.32,9.14,8.72
			c3.47,2.41,7.27,4.25,11.41,5.54c4.14,1.29,8.5,1.93,13.09,1.93c11.52,0,20.58-3.02,27.18-9.06c2.24-1.57,4.42-2.71,6.54-3.44
			c2.12-0.73,4.14-1.09,6.04-1.09c3.13,0,5.93,0.81,8.39,2.43c2.46,1.62,4.47,3.72,6.04,6.29c1.12,1.79,1.93,3.72,2.43,5.79
			c0.5,2.07,0.61,4.17,0.34,6.29c-0.28,2.13-0.95,4.22-2.01,6.29c-1.06,2.07-2.66,3.94-4.78,5.62c-2.46,2.24-5.26,4.39-8.39,6.46
			c-3.13,2.07-6.74,3.89-10.82,5.45c-4.08,1.57-8.67,2.83-13.76,3.77c-5.09,0.95-10.82,1.43-17.2,1.43
			c-11.07,0-21.48-2.1-31.21-6.29c-9.73-4.2-18.23-9.93-25.5-17.2c-7.27-7.27-13.03-15.74-17.28-25.42
			c-4.25-9.67-6.38-20.05-6.38-31.12s2.12-21.48,6.38-31.21c4.25-9.73,10.01-18.21,17.28-25.42c7.27-7.21,15.77-12.92,25.5-17.11
			c9.73-4.19,20.13-6.29,31.21-6.29c10.96,0,21.28,2.07,30.96,6.21c9.67,4.14,18.18,9.76,25.5,16.86
			c7.33,7.1,13.14,15.46,17.45,25.08c4.3,9.62,6.51,19.91,6.63,30.87c0,5.15-1.65,9.31-4.95,12.5c-3.3,3.19-7.63,4.78-13,4.78
			H882.81z M965.7,278.47c-1.23-4.58-3.16-8.72-5.79-12.42c-2.63-3.69-5.79-6.82-9.48-9.4c-3.69-2.57-7.83-4.53-12.42-5.87
			c-4.59-1.34-9.45-2.01-14.6-2.01c-5.15,0-9.98,0.7-14.51,2.1c-4.53,1.4-8.61,3.41-12.25,6.04c-3.64,2.63-6.74,5.76-9.31,9.4
			c-2.57,3.64-4.48,7.69-5.7,12.16H965.7z"/>
		<path class="st0" d="M1057.82,308.68c1.45,4.14,3.49,7.92,6.12,11.33c2.63,3.41,5.68,6.32,9.14,8.72
			c3.47,2.41,7.27,4.25,11.41,5.54c4.14,1.29,8.5,1.93,13.09,1.93c11.52,0,20.58-3.02,27.18-9.06c2.24-1.57,4.42-2.71,6.54-3.44
			c2.12-0.73,4.14-1.09,6.04-1.09c3.13,0,5.93,0.81,8.39,2.43c2.46,1.62,4.47,3.72,6.04,6.29c1.12,1.79,1.93,3.72,2.43,5.79
			c0.5,2.07,0.61,4.17,0.34,6.29c-0.28,2.13-0.95,4.22-2.01,6.29c-1.06,2.07-2.66,3.94-4.78,5.62c-2.46,2.24-5.26,4.39-8.39,6.46
			c-3.13,2.07-6.74,3.89-10.82,5.45c-4.08,1.57-8.67,2.83-13.76,3.77c-5.09,0.95-10.82,1.43-17.2,1.43
			c-11.07,0-21.48-2.1-31.21-6.29c-9.73-4.2-18.23-9.93-25.5-17.2c-7.27-7.27-13.03-15.74-17.28-25.42
			c-4.25-9.67-6.38-20.05-6.38-31.12s2.12-21.48,6.38-31.21c4.25-9.73,10.01-18.21,17.28-25.42c7.27-7.21,15.77-12.92,25.5-17.11
			c9.73-4.19,20.13-6.29,31.21-6.29c10.96,0,21.28,2.07,30.96,6.21c9.67,4.14,18.18,9.76,25.5,16.86
			c7.33,7.1,13.14,15.46,17.45,25.08c4.3,9.62,6.51,19.91,6.63,30.87c0,5.15-1.65,9.31-4.95,12.5c-3.3,3.19-7.63,4.78-13,4.78
			H1057.82z M1140.7,278.47c-1.23-4.58-3.16-8.72-5.79-12.42c-2.63-3.69-5.79-6.82-9.48-9.4c-3.69-2.57-7.83-4.53-12.42-5.87
			c-4.59-1.34-9.45-2.01-14.6-2.01c-5.15,0-9.98,0.7-14.51,2.1c-4.53,1.4-8.61,3.41-12.25,6.04c-3.64,2.63-6.74,5.76-9.31,9.4
			c-2.57,3.64-4.48,7.69-5.7,12.16H1140.7z"/>
		<path class="st0" d="M1235.84,352.47c0,2.46-0.45,4.81-1.34,7.05c-0.9,2.24-2.16,4.14-3.78,5.71c-1.62,1.57-3.5,2.83-5.62,3.78
			c-2.13,0.95-4.42,1.43-6.88,1.43c-2.57,0-5.01-0.47-7.3-1.43c-2.29-0.95-4.28-2.21-5.96-3.78c-1.68-1.57-3.02-3.47-4.03-5.71
			c-1.01-2.24-1.51-4.58-1.51-7.05v-54.2c0-11.52,2.21-22.37,6.63-32.55c4.42-10.18,10.43-19.07,18.04-26.68
			c7.61-7.61,16.5-13.62,26.68-18.04c10.18-4.42,20.97-6.63,32.38-6.63h0.34c6.04,0,10.71,1.71,14.01,5.12
			c3.3,3.41,4.95,7.75,4.95,13c0,2.57-0.5,4.98-1.51,7.21c-1.01,2.24-2.38,4.17-4.11,5.79c-1.74,1.62-3.75,2.91-6.04,3.86
			c-2.29,0.95-4.73,1.43-7.3,1.43h-0.34c-6.38,0-12.44,1.23-18.2,3.69c-5.76,2.46-10.77,5.82-15.02,10.07
			c-4.25,4.25-7.66,9.23-10.24,14.93c-2.57,5.71-3.86,11.8-3.86,18.29V352.47z"/>
		<path class="st0" d="M1363.52,222.1v130.37c0,2.46-0.48,4.81-1.43,7.05c-0.95,2.24-2.27,4.14-3.94,5.71
			c-1.68,1.57-3.61,2.83-5.79,3.78c-2.18,0.95-4.56,1.43-7.13,1.43c-2.46,0-4.81-0.47-7.05-1.43c-2.24-0.95-4.17-2.21-5.79-3.78
			c-1.62-1.57-2.91-3.47-3.86-5.71c-0.95-2.24-1.43-4.58-1.43-7.05V173.61c0-2.57,0.47-4.95,1.43-7.13
			c0.95-2.18,2.27-4.08,3.94-5.71c1.68-1.62,3.63-2.88,5.87-3.78c2.24-0.89,4.58-1.34,7.05-1.34c4.81,0,9.12,1.74,12.92,5.2
			l72.65,86.24l72.32-86.24c1.57-1.45,3.49-2.68,5.79-3.69c2.29-1.01,4.5-1.51,6.63-1.51h1.34c2.46,0.11,4.75,0.67,6.88,1.68
			c2.12,1.01,4,2.29,5.62,3.86c1.62,1.57,2.88,3.41,3.78,5.54c0.89,2.13,1.34,4.42,1.34,6.88v178.86c0,2.46-0.48,4.81-1.43,7.05
			c-0.95,2.24-2.27,4.14-3.94,5.71c-1.68,1.57-3.61,2.83-5.79,3.78c-2.18,0.95-4.56,1.43-7.13,1.43c-2.46,0-4.78-0.47-6.96-1.43
			c-2.18-0.95-4.11-2.21-5.79-3.78c-1.68-1.57-2.99-3.47-3.94-5.71c-0.95-2.24-1.43-4.58-1.43-7.05V221.93l-55.37,65.77
			c-1.57,1.57-3.41,2.88-5.54,3.94c-2.13,1.06-4.31,1.59-6.54,1.59c-4.36,0-8.22-1.79-11.58-5.37h-0.17v-0.17L1363.52,222.1z"/>
		<path class="st0" d="M1562.35,292.4c0-11.07,2.12-21.45,6.38-31.12c4.25-9.67,10.01-18.15,17.28-25.42
			c7.27-7.27,15.74-13,25.42-17.2c9.67-4.19,19.99-6.29,30.96-6.29c11.07,0,21.48,2.1,31.21,6.29c9.73,4.2,18.21,9.93,25.42,17.2
			c7.21,7.27,12.89,15.75,17.03,25.42c4.14,9.68,6.21,20.05,6.21,31.12c0,10.96-2.07,21.31-6.21,31.04
			c-4.14,9.73-9.82,18.23-17.03,25.5c-7.21,7.27-15.69,13-25.42,17.2c-9.73,4.19-20.13,6.29-31.21,6.29
			c-10.96,0-21.28-2.1-30.96-6.29c-9.68-4.2-18.15-9.93-25.42-17.2c-7.27-7.27-13.03-15.77-17.28-25.5
			C1564.47,313.71,1562.35,303.37,1562.35,292.4z M1598.76,292.4c0,5.93,1.15,11.55,3.44,16.86c2.29,5.31,5.42,9.96,9.4,13.93
			c3.97,3.97,8.58,7.1,13.84,9.4c5.26,2.29,10.91,3.44,16.95,3.44c6.04,0,11.72-1.15,17.03-3.44c5.31-2.29,9.93-5.42,13.84-9.4
			c3.91-3.97,6.99-8.61,9.23-13.93c2.24-5.31,3.36-10.93,3.36-16.86c0-6.04-1.12-11.72-3.36-17.03c-2.24-5.31-5.31-9.93-9.23-13.84
			c-3.92-3.91-8.53-7.02-13.84-9.31c-5.31-2.29-10.99-3.44-17.03-3.44c-5.93,0-11.55,1.15-16.86,3.44
			c-5.31,2.29-9.96,5.4-13.93,9.31c-3.97,3.92-7.1,8.53-9.4,13.84C1599.9,280.68,1598.76,286.36,1598.76,292.4z"/>
		<path class="st0" d="M1894.73,352.81c0,2.58-0.48,4.95-1.43,7.13c-0.95,2.18-2.21,4.08-3.78,5.7c-1.57,1.62-3.44,2.88-5.62,3.78
			c-2.18,0.9-4.5,1.34-6.96,1.34c-2.46,0-4.84-0.45-7.13-1.34c-2.29-0.89-4.28-2.15-5.96-3.78c-1.68-1.62-3.02-3.52-4.03-5.7
			c-1.01-2.18-1.51-4.56-1.51-7.13v-62.42c0-0.89,0.05-1.57,0.17-2.01c-0.23-5.48-1.34-10.62-3.36-15.44
			c-2.01-4.81-4.76-9-8.22-12.58c-3.47-3.58-7.52-6.4-12.17-8.47c-4.64-2.07-9.76-3.1-15.35-3.1c-5.7,0-10.96,1.04-15.77,3.1
			c-4.81,2.07-8.92,4.95-12.33,8.64c-3.41,3.69-6.1,8.03-8.05,13c-1.96,4.98-2.94,10.32-2.94,16.02v63.26
			c0,2.58-0.45,4.95-1.34,7.13c-0.9,2.18-2.15,4.08-3.77,5.7c-1.62,1.62-3.5,2.88-5.62,3.78c-2.13,0.9-4.48,1.34-7.05,1.34
			c-2.46,0-4.81-0.45-7.05-1.34c-2.24-0.89-4.22-2.15-5.96-3.78c-1.74-1.62-3.1-3.52-4.11-5.7c-1.01-2.18-1.51-4.56-1.51-7.13
			v-63.26c0-10.74,1.93-20.78,5.79-30.12c3.86-9.34,9.17-17.5,15.94-24.5c6.77-6.99,14.77-12.5,23.99-16.53
			c9.23-4.03,19.15-6.04,29.78-6.04c10.74,0,20.69,2.01,29.87,6.04c9.17,4.03,17.11,9.54,23.83,16.53c6.71,6.99,12,15.16,15.86,24.5
			c3.86,9.34,5.79,19.38,5.79,30.12V352.81z"/>
		<path class="st0" d="M1956.98,308.68c1.45,4.14,3.49,7.92,6.12,11.33c2.63,3.41,5.68,6.32,9.14,8.72
			c3.47,2.41,7.27,4.25,11.41,5.54c4.14,1.29,8.5,1.93,13.09,1.93c11.52,0,20.58-3.02,27.18-9.06c2.24-1.57,4.42-2.71,6.54-3.44
			c2.12-0.73,4.14-1.09,6.04-1.09c3.13,0,5.93,0.81,8.39,2.43c2.46,1.62,4.47,3.72,6.04,6.29c1.12,1.79,1.93,3.72,2.43,5.79
			c0.5,2.07,0.61,4.17,0.34,6.29c-0.28,2.13-0.95,4.22-2.01,6.29c-1.06,2.07-2.66,3.94-4.78,5.62c-2.46,2.24-5.26,4.39-8.39,6.46
			c-3.13,2.07-6.74,3.89-10.82,5.45c-4.08,1.57-8.67,2.83-13.76,3.77c-5.09,0.95-10.82,1.43-17.2,1.43
			c-11.07,0-21.48-2.1-31.21-6.29c-9.73-4.2-18.23-9.93-25.5-17.2c-7.27-7.27-13.03-15.74-17.28-25.42
			c-4.25-9.67-6.38-20.05-6.38-31.12s2.12-21.48,6.38-31.21c4.25-9.73,10.01-18.21,17.28-25.42c7.27-7.21,15.77-12.92,25.5-17.11
			c9.73-4.19,20.13-6.29,31.21-6.29c10.96,0,21.28,2.07,30.96,6.21c9.67,4.14,18.18,9.76,25.5,16.86
			c7.33,7.1,13.14,15.46,17.45,25.08c4.3,9.62,6.51,19.91,6.63,30.87c0,5.15-1.65,9.31-4.95,12.5c-3.3,3.19-7.63,4.78-13,4.78
			H1956.98z M2039.87,278.47c-1.23-4.58-3.16-8.72-5.79-12.42c-2.63-3.69-5.79-6.82-9.48-9.4c-3.69-2.57-7.83-4.53-12.42-5.87
			c-4.59-1.34-9.45-2.01-14.6-2.01c-5.15,0-9.98,0.7-14.51,2.1c-4.53,1.4-8.61,3.41-12.25,6.04c-3.64,2.63-6.74,5.76-9.31,9.4
			c-2.57,3.64-4.48,7.69-5.7,12.16H2039.87z"/>
		<path class="st0" d="M2135.34,295.25c0,5.7,1.06,11.05,3.19,16.02c2.12,4.98,5.03,9.29,8.73,12.92c3.69,3.64,8.05,6.49,13.09,8.56
			c5.03,2.07,10.4,3.1,16.11,3.1c5.71,0,11.05-1.09,16.02-3.27c4.98-2.18,9.28-5.14,12.92-8.89c3.63-3.75,6.51-8.14,8.64-13.17
			c2.12-5.03,3.19-10.46,3.19-16.28V232.5c0-2.46,0.5-4.78,1.51-6.96c1.01-2.18,2.35-4.11,4.03-5.79c1.68-1.68,3.66-2.99,5.96-3.94
			c2.29-0.95,4.67-1.43,7.13-1.43c2.57,0,4.92,0.48,7.05,1.43c2.12,0.95,4,2.27,5.62,3.94c1.62,1.68,2.88,3.61,3.77,5.79
			c0.89,2.18,1.34,4.5,1.34,6.96v62.42c0,9.17-1.51,17.87-4.53,26.09c-3.02,8.22-7.16,15.63-12.42,22.23
			c-5.26,6.6-11.52,12.25-18.79,16.95c-7.27,4.7-15.16,8.05-23.66,10.07v38.59c0,2.57-0.48,4.98-1.43,7.21
			c-0.95,2.24-2.27,4.17-3.94,5.79c-1.68,1.62-3.61,2.91-5.79,3.86c-2.18,0.95-4.5,1.43-6.96,1.43c-5.26,0-9.62-1.74-13.09-5.2
			c-3.47-3.47-5.2-7.83-5.2-13.09v-38.76c-8.5-2.12-16.33-5.54-23.49-10.23c-7.16-4.7-13.37-10.35-18.62-16.95
			c-5.26-6.6-9.37-13.98-12.33-22.15c-2.96-8.16-4.45-16.78-4.45-25.84V232.5c0-2.46,0.47-4.78,1.43-6.96
			c0.95-2.18,2.24-4.11,3.86-5.79c1.62-1.68,3.55-2.99,5.79-3.94c2.24-0.95,4.58-1.43,7.05-1.43c2.46,0,4.81,0.48,7.05,1.43
			c2.24,0.95,4.19,2.27,5.87,3.94c1.68,1.68,2.99,3.61,3.94,5.79c0.95,2.18,1.43,4.5,1.43,6.96V295.25z"/>
		<path class="st0" d="M2382.48,370.42c-2.46,0-4.81-0.47-7.05-1.43c-2.24-0.95-4.17-2.21-5.79-3.78c-1.62-1.57-2.91-3.47-3.86-5.71
			c-0.95-2.24-1.43-4.58-1.43-7.05V173.61c0-2.57,0.47-4.95,1.43-7.13c0.95-2.18,2.24-4.08,3.86-5.71c1.62-1.62,3.55-2.88,5.79-3.78
			c2.24-0.89,4.59-1.34,7.05-1.34h77.01c8.28,0,16.02,1.57,23.24,4.7c7.21,3.13,13.51,7.38,18.88,12.75
			c5.37,5.37,9.59,11.66,12.67,18.88c3.08,7.21,4.61,14.96,4.61,23.24c0,7.72-1.37,15.1-4.11,22.15
			c-2.74,7.05-6.52,13.42-11.33,19.13c7.16,6.15,12.84,13.57,17.03,22.23c4.19,8.67,6.29,18.04,6.29,28.1c0,8.95-1.71,17.28-5.12,25
			c-3.41,7.72-8.05,14.43-13.93,20.13c-5.87,5.71-12.75,10.21-20.64,13.51c-7.89,3.3-16.36,4.95-25.42,4.95H2382.48z
			 M2400.77,192.06v48.99h57.38c3.36-0.11,6.52-0.86,9.48-2.26c2.96-1.4,5.54-3.21,7.72-5.45c2.18-2.24,3.89-4.84,5.12-7.8
			c1.23-2.96,1.85-6.01,1.85-9.14c0-3.36-0.67-6.49-2.01-9.4c-1.34-2.91-3.16-5.48-5.45-7.72c-2.29-2.24-4.95-4-7.97-5.29
			c-3.02-1.28-6.21-1.93-9.56-1.93H2400.77z M2400.77,277.47v56.54h59.56c4.14,0,8.03-0.81,11.66-2.43
			c3.63-1.62,6.82-3.83,9.56-6.63c2.74-2.79,4.89-5.98,6.46-9.56c1.57-3.58,2.35-7.33,2.35-11.24c0-4.03-0.81-7.69-2.43-10.99
			c-1.62-3.3-3.8-6.1-6.54-8.39c-2.74-2.29-5.93-4.08-9.56-5.37c-3.64-1.28-7.47-1.93-11.49-1.93H2400.77z"/>
		<path class="st0" d="M2655.14,154.14c15.1,0,29.31,2.85,42.62,8.56c13.31,5.7,24.92,13.51,34.82,23.41s17.7,21.48,23.41,34.73
			c5.71,13.25,8.56,27.43,8.56,42.53c0,10.07-1.32,19.74-3.94,29.03c-2.63,9.29-6.29,17.95-10.99,26.01s-10.4,15.41-17.11,22.06
			c-6.71,6.66-14.09,12.36-22.15,17.11c-8.05,4.76-16.75,8.42-26.09,10.99c-9.34,2.57-19.04,3.86-29.11,3.86
			c-15.1,0-29.28-2.85-42.53-8.56s-24.78-13.51-34.56-23.41c-9.79-9.9-17.51-21.45-23.15-34.65c-5.65-13.2-8.47-27.35-8.47-42.45
			c0-10.07,1.28-19.74,3.86-29.03c2.57-9.28,6.21-17.98,10.91-26.09c4.7-8.11,10.34-15.49,16.95-22.15
			c6.6-6.65,13.93-12.33,21.98-17.03s16.72-8.36,26.01-10.99C2635.39,155.46,2645.07,154.14,2655.14,154.14z M2655.31,190.55
			c-10.07,0-19.49,1.9-28.27,5.71c-8.78,3.8-16.44,9-22.99,15.6c-6.54,6.6-11.72,14.32-15.52,23.15c-3.8,8.84-5.71,18.29-5.71,28.36
			c0,10.18,1.9,19.69,5.71,28.52c3.8,8.84,8.98,16.53,15.52,23.07c6.54,6.54,14.2,11.69,22.99,15.44
			c8.78,3.75,18.21,5.62,28.27,5.62s19.55-1.87,28.44-5.62c8.89-3.75,16.61-8.89,23.15-15.44s11.72-14.23,15.52-23.07
			c3.8-8.83,5.71-18.34,5.71-28.52c0-10.07-1.9-19.52-5.71-28.36c-3.8-8.83-8.98-16.55-15.52-23.15c-6.54-6.6-14.26-11.8-23.15-15.6
			C2674.85,192.46,2665.37,190.55,2655.31,190.55z"/>
		<path class="st0" d="M2868.4,192.06v160.41c0,2.46-0.48,4.81-1.43,7.05c-0.95,2.24-2.26,4.14-3.94,5.71
			c-1.68,1.57-3.64,2.83-5.87,3.78c-2.24,0.95-4.64,1.43-7.21,1.43c-2.46,0-4.78-0.47-6.96-1.43c-2.18-0.95-4.08-2.21-5.71-3.78
			c-1.62-1.57-2.91-3.47-3.86-5.71c-0.95-2.24-1.43-4.58-1.43-7.05V192.06h-50.17c-2.46,0-4.81-0.47-7.05-1.43
			c-2.24-0.95-4.17-2.27-5.79-3.94c-1.62-1.68-2.91-3.63-3.86-5.87c-0.95-2.24-1.43-4.59-1.43-7.05c0-2.57,0.47-4.95,1.43-7.13
			c0.95-2.18,2.24-4.08,3.86-5.7c1.62-1.62,3.55-2.91,5.79-3.86c2.24-0.95,4.58-1.43,7.05-1.43h136.75c2.57,0,4.95,0.48,7.13,1.43
			c2.18,0.95,4.08,2.26,5.7,3.94c1.62,1.68,2.91,3.61,3.86,5.79c0.95,2.18,1.43,4.56,1.43,7.13c0,2.58-0.48,4.95-1.43,7.13
			c-0.95,2.18-2.24,4.08-3.86,5.7c-1.62,1.62-3.52,2.91-5.7,3.86c-2.18,0.95-4.56,1.43-7.13,1.43H2868.4z"/>
	</g>
	<g>
		<g>
			<path class="st1" d="M470.22,265.46c-0.01-1.79-0.03-3.57-0.08-5.35c-0.05-1.89-0.13-3.77-0.23-5.66
				c-0.09-1.78-0.18-3.57-0.3-5.35c-0.13-1.88-0.29-3.77-0.46-5.65c-0.16-1.78-0.32-3.55-0.52-5.33c-0.21-1.88-0.45-3.75-0.69-5.63
				c-0.23-1.77-0.46-3.53-0.73-5.29c-0.1-0.65-0.17-1.3-0.27-1.95c-0.24-1.52-0.54-3.04-0.81-4.56c-0.21-1.17-0.4-2.34-0.62-3.5
				c-0.53-2.79-1.12-5.57-1.74-8.34c-0.13-0.59-0.24-1.19-0.38-1.78c-0.78-3.35-1.62-6.68-2.53-9.99c-0.26-0.95-0.55-1.9-0.83-2.85
				c-0.53-1.84-1.04-3.69-1.6-5.53c-0.16-0.53-0.35-1.05-0.52-1.57c-0.36-1.12-0.73-2.23-1.1-3.35c-0.72-2.16-1.46-4.3-2.23-6.43
				c-0.42-1.16-0.84-2.31-1.28-3.46c-0.82-2.17-1.68-4.33-2.57-6.48c-0.42-1.02-0.82-2.04-1.25-3.06c-1.24-2.91-2.53-5.81-3.89-8.67
				c-0.1-0.2-0.18-0.41-0.28-0.61c-0.01-0.03-0.03-0.06-0.04-0.09c-1.48-3.12-3.04-6.2-4.66-9.24c-0.51-0.96-1.06-1.9-1.58-2.86
				c-1.15-2.1-2.31-4.19-3.52-6.26c-0.68-1.16-1.39-2.29-2.09-3.43c-1.12-1.84-2.25-3.67-3.42-5.48c-0.77-1.19-1.57-2.37-2.36-3.54
				c-0.65-0.97-1.28-1.96-1.95-2.93c-0.54-0.77-1.11-1.51-1.66-2.28c-0.8-1.11-1.6-2.22-2.42-3.32c-1.29-1.74-2.61-3.45-3.94-5.15
				c-0.82-1.04-1.63-2.08-2.47-3.11c-1.48-1.82-3.01-3.6-4.55-5.37c-0.74-0.85-1.46-1.72-2.22-2.56c-2.32-2.59-4.69-5.13-7.14-7.61
				c-1.92-1.94-3.86-3.84-5.82-5.68c-0.67-0.63-1.35-1.22-2.02-1.84c-1.22-1.12-2.43-2.25-3.67-3.33c-0.06-0.06-0.13-0.11-0.2-0.16
				c-2.76-2.41-5.56-4.7-8.4-6.92c-0.68-0.53-1.36-1.06-2.05-1.58c-2.79-2.13-5.6-4.2-8.46-6.16c-0.09-0.07-0.19-0.14-0.28-0.2
				c-2.94-2-5.92-3.88-8.91-5.69c-0.72-0.44-1.44-0.87-2.16-1.29c-3-1.76-6.02-3.46-9.07-5.04c-0.19-0.1-0.37-0.18-0.56-0.28
				c-2.91-1.49-5.85-2.88-8.8-4.2c-0.74-0.33-1.48-0.66-2.22-0.98c-3.09-1.34-6.2-2.6-9.33-3.76c-0.39-0.14-0.77-0.26-1.16-0.4
				c-2.85-1.03-5.72-1.97-8.59-2.85c-0.73-0.22-1.46-0.45-2.2-0.67c-3.16-0.92-6.33-1.76-9.51-2.5c-0.15-0.03-0.29-0.08-0.44-0.12
				c-0.37-0.09-0.75-0.14-1.12-0.22c-2.87-0.64-5.74-1.2-8.62-1.69c-0.69-0.12-1.38-0.25-2.06-0.36c-0.44-0.07-0.88-0.16-1.33-0.23
				c-2.84-0.43-5.69-0.77-8.55-1.06c-0.63-0.06-1.26-0.1-1.88-0.16c-2.74-0.25-5.49-0.43-8.23-0.54c-0.91-0.04-1.82-0.08-2.73-0.1
				c-3.31-0.09-6.62-0.12-9.93-0.02l-40.3,1.2l0,0c-46.62,1.39-92.53,21.55-128.7,59.69c-0.09,0.1-0.19,0.2-0.28,0.3
				c-1.57,1.66-3.13,3.34-4.66,5.07c0.12-0.18,0.23-0.36,0.36-0.54c2.31-3.37,4.7-6.7,7.18-9.97c2.54-3.36,5.16-6.6,7.81-9.77
				c0,0-0.01,0-0.01,0c20.07-23.95,43.25-42.59,68.18-55.8C200.82,9.01,231.29,1,262.02,0.09l-0.01,0c0,0,0.01,0,0.01,0l-40.3,1.2
				C160.27,3.12,99.83,33.31,56.31,90.74c-2.48,3.27-4.86,6.6-7.18,9.97c-0.76,1.11-1.48,2.25-2.22,3.38
				c-1.52,2.28-3.02,4.57-4.47,6.89c-0.84,1.36-1.64,2.74-2.45,4.11c-1.27,2.13-2.53,4.27-3.74,6.44c-0.83,1.48-1.61,2.97-2.41,4.46
				c-1.13,2.11-2.23,4.22-3.3,6.35c-0.77,1.54-1.52,3.09-2.27,4.65c-1.02,2.13-2.01,4.27-2.97,6.42c-0.7,1.57-1.4,3.15-2.07,4.74
				c-0.93,2.19-1.82,4.39-2.69,6.6c-0.62,1.57-1.24,3.14-1.83,4.72c-0.86,2.3-1.67,4.62-2.47,6.95c-0.52,1.51-1.06,3.01-1.56,4.53
				c-0.83,2.55-1.6,5.13-2.36,7.7c-0.39,1.31-0.8,2.6-1.17,3.92c-0.99,3.53-1.91,7.08-2.77,10.65c-0.09,0.37-0.2,0.73-0.28,1.1
				c-0.93,3.94-1.77,7.9-2.55,11.88c-0.24,1.25-0.44,2.51-0.66,3.76c-0.49,2.73-0.98,5.47-1.4,8.22c-0.24,1.55-0.43,3.1-0.64,4.66
				c-0.34,2.47-0.66,4.93-0.94,7.41c-0.18,1.66-0.33,3.33-0.49,4.99c-0.23,2.38-0.44,4.76-0.61,7.15c-0.12,1.71-0.22,3.42-0.31,5.13
				c-0.13,2.36-0.23,4.72-0.3,7.08c-0.05,1.72-0.1,3.43-0.12,5.15c-0.01,0.97-0.06,1.95-0.07,2.92c-0.01,1.26,0.05,2.52,0.06,3.78
				c0.02,2.04,0.04,4.09,0.09,6.13c0.06,2.17,0.15,4.33,0.26,6.5c0.1,2.04,0.2,4.08,0.34,6.11c0.15,2.16,0.33,4.32,0.53,6.48
				c0.18,2.03,0.37,4.06,0.59,6.09c0.24,2.15,0.51,4.3,0.79,6.45c0.27,2.02,0.53,4.04,0.84,6.06c0.11,0.75,0.19,1.5,0.31,2.25
				c0.28,1.73,0.61,3.45,0.92,5.18c0.24,1.35,0.46,2.7,0.72,4.04c0.6,3.17,1.27,6.32,1.97,9.47c0.16,0.7,0.29,1.41,0.45,2.12
				c0.89,3.84,1.86,7.66,2.9,11.45c0.29,1.07,0.62,2.12,0.92,3.18c0.61,2.14,1.2,4.29,1.86,6.41c0.18,0.6,0.4,1.18,0.59,1.78
				c0.41,1.29,0.84,2.56,1.27,3.85c0.82,2.46,1.66,4.91,2.54,7.35c0.48,1.33,0.97,2.66,1.47,3.98c0.94,2.48,1.92,4.94,2.93,7.4
				c0.48,1.17,0.95,2.35,1.45,3.52c1.41,3.3,2.87,6.58,4.4,9.82c0.13,0.27,0.24,0.54,0.37,0.81c0.02,0.04,0.03,0.07,0.05,0.11
				c1.7,3.57,3.48,7.09,5.33,10.58c0.58,1.09,1.2,2.16,1.79,3.24c1.32,2.42,2.66,4.83,4.05,7.21c0.77,1.32,1.58,2.61,2.38,3.92
				c1.29,2.11,2.58,4.21,3.93,6.29c0.88,1.36,1.79,2.71,2.7,4.06c0.75,1.11,1.47,2.25,2.23,3.36c0.61,0.88,1.27,1.73,1.89,2.6
				c0.91,1.28,1.83,2.54,2.77,3.8c1.48,1.99,2.99,3.95,4.52,5.9c0.94,1.19,1.86,2.38,2.82,3.55c1.7,2.08,3.45,4.12,5.22,6.16
				c0.85,0.98,1.67,1.97,2.54,2.93c2.66,2.96,5.37,5.88,8.17,8.72c2.57,2.61,5.19,5.11,7.82,7.56c0.79,0.73,1.59,1.44,2.38,2.16
				c1,0.9,1.98,1.83,2.98,2.71c0.61,0.54,1.25,1.01,1.87,1.54c2.2,1.89,4.43,3.72,6.68,5.5c1.18,0.94,2.36,1.9,3.55,2.81
				c2.68,2.05,5.4,4.01,8.13,5.92c0.76,0.53,1.51,1.11,2.28,1.63c3.51,2.38,7.05,4.64,10.63,6.79c0.94,0.56,1.9,1.07,2.84,1.62
				c2.67,1.55,5.35,3.06,8.06,4.48c1.3,0.68,2.62,1.33,3.93,1.98c2.41,1.2,4.83,2.36,7.26,3.47c1.38,0.62,2.77,1.24,4.15,1.83
				c2.49,1.06,4.98,2.06,7.49,3.02c1.29,0.49,2.58,1.01,3.88,1.48c3.08,1.11,6.18,2.13,9.29,3.08c0.71,0.22,1.41,0.47,2.12,0.68
				c3.82,1.13,7.66,2.13,11.51,3.03c0.21,0.05,0.42,0.12,0.64,0.17c0.84,0.19,1.69,0.31,2.53,0.5c2.85,0.62,5.69,1.19,8.55,1.68
				c1.39,0.24,2.78,0.44,4.18,0.65c2.58,0.39,5.17,0.73,7.76,1.01c1.42,0.16,2.85,0.31,4.27,0.44c2.71,0.24,5.42,0.41,8.14,0.54
				c1.24,0.06,2.48,0.15,3.72,0.18c3.93,0.11,7.85,0.14,11.77,0.03l40.3-1.2c-3.92,0.12-7.85,0.09-11.77-0.03
				c-1.24-0.04-2.48-0.12-3.72-0.18c-2.71-0.13-5.42-0.3-8.13-0.54c-1.43-0.13-2.85-0.28-4.27-0.44c-2.59-0.29-5.17-0.63-7.75-1.01
				c-1.39-0.21-2.79-0.41-4.18-0.65c-2.86-0.49-5.71-1.06-8.55-1.68c-1.06-0.23-2.11-0.42-3.17-0.66c-3.85-0.9-7.69-1.9-11.51-3.03
				c-0.71-0.21-1.41-0.46-2.12-0.68c-3.11-0.95-6.21-1.97-9.29-3.08c-1.3-0.47-2.59-0.98-3.88-1.48c-2.5-0.96-5-1.95-7.48-3.01
				c-1.39-0.59-2.78-1.21-4.16-1.83c-2.43-1.1-4.85-2.26-7.26-3.47c-1.31-0.65-2.63-1.3-3.93-1.98c-2.71-1.42-5.39-2.93-8.06-4.48
				c-0.95-0.55-1.9-1.06-2.84-1.62c-3.58-2.15-7.13-4.41-10.63-6.79c-0.77-0.52-1.52-1.1-2.28-1.63c-2.73-1.91-5.45-3.87-8.13-5.92
				c-1.19-0.91-2.37-1.87-3.55-2.81c-2.25-1.79-4.47-3.61-6.68-5.5c-1.63-1.4-3.25-2.8-4.85-4.25c-0.79-0.72-1.59-1.43-2.38-2.16
				c-2.64-2.45-5.25-4.96-7.82-7.56c-2.8-2.84-5.52-5.76-8.17-8.72c-0.86-0.96-1.69-1.96-2.54-2.93c-1.77-2.03-3.52-4.07-5.22-6.16
				c-0.96-1.17-1.89-2.37-2.82-3.55c-0.33-0.41-0.63-0.83-0.96-1.25c1.77,1.77,3.56,3.5,5.37,5.18c0.69,0.64,1.38,1.25,2.07,1.88
				c0.87,0.79,1.73,1.6,2.61,2.37c0.54,0.47,1.09,0.88,1.63,1.35c1.92,1.65,3.87,3.25,5.83,4.81c1.03,0.82,2.06,1.66,3.1,2.46
				c2.34,1.79,4.71,3.5,7.1,5.17c0.67,0.47,1.32,0.96,1.99,1.42c3.06,2.08,6.16,4.05,9.28,5.93c0.83,0.5,1.67,0.94,2.5,1.43
				c2.33,1.35,4.66,2.66,7.02,3.9c1.14,0.6,2.3,1.16,3.45,1.74c2.1,1.05,4.21,2.06,6.33,3.02c1.21,0.55,2.42,1.08,3.63,1.6
				c2.17,0.93,4.35,1.8,6.54,2.63c1.13,0.43,2.26,0.88,3.39,1.29c2.69,0.97,5.4,1.86,8.11,2.69c0.62,0.19,1.23,0.41,1.85,0.6
				c3.33,0.99,6.69,1.86,10.05,2.64c0.19,0.04,0.38,0.1,0.56,0.15c0.74,0.17,1.48,0.28,2.22,0.44c2.48,0.54,4.96,1.04,7.45,1.46
				c1.22,0.21,2.44,0.39,3.66,0.57c2.25,0.34,4.5,0.63,6.75,0.88c1.25,0.14,2.5,0.27,3.76,0.38c2.35,0.21,4.71,0.36,7.07,0.47
				c1.09,0.05,2.19,0.13,3.28,0.16c3.42,0.1,6.85,0.12,10.27,0.02l37.13-1.11l3.17-0.09l0,0h0h0c3.56-0.11,7.11-0.34,10.66-0.66
				c1.16-0.11,2.32-0.28,3.48-0.41c2.39-0.27,4.77-0.54,7.14-0.91c1.38-0.21,2.74-0.48,4.12-0.72c2.15-0.38,4.3-0.78,6.45-1.24
				c1.45-0.31,2.89-0.67,4.33-1.02c2.06-0.5,4.12-1.03,6.16-1.6c0.68-0.19,1.38-0.33,2.06-0.54c1.25-0.37,2.48-0.78,3.72-1.18
				c0.73-0.23,1.47-0.46,2.21-0.7c2.87-0.95,5.72-1.98,8.56-3.08c0.53-0.21,1.05-0.43,1.57-0.64c2.36-0.94,4.7-1.94,7.03-2.99
				c0.82-0.37,1.63-0.74,2.45-1.12c2.39-1.12,4.77-2.29,7.13-3.52c0.43-0.22,0.86-0.43,1.28-0.65c2.74-1.45,5.44-3,8.13-4.6
				c0.71-0.43,1.42-0.87,2.13-1.31c2.08-1.28,4.15-2.61,6.2-3.98c0.72-0.48,1.45-0.96,2.17-1.46c2.62-1.8,5.21-3.67,7.76-5.62
				c0.3-0.23,0.58-0.47,0.88-0.7c2.27-1.76,4.51-3.59,6.73-5.46c0.73-0.61,1.44-1.24,2.16-1.86c2.01-1.75,3.99-3.54,5.95-5.39
				c0.5-0.47,1.01-0.92,1.5-1.4c2.38-2.29,4.73-4.66,7.03-7.1c0.56-0.59,1.11-1.21,1.67-1.81c1.81-1.96,3.59-3.96,5.34-6.01
				c0.64-0.74,1.27-1.48,1.9-2.23c2.21-2.65,4.4-5.36,6.52-8.16c2.16-2.86,4.25-5.76,6.26-8.7c0.67-0.97,1.29-1.97,1.94-2.95
				c1.32-1.99,2.64-3.98,3.89-6.01c0.74-1.19,1.44-2.4,2.15-3.6c1.11-1.86,2.21-3.72,3.26-5.61c0.72-1.29,1.41-2.59,2.1-3.89
				c0.98-1.84,1.95-3.68,2.88-5.54c0.68-1.35,1.33-2.71,1.98-4.07c0.89-1.85,1.75-3.72,2.58-5.59c0.61-1.38,1.22-2.76,1.81-4.15
				c0.81-1.91,1.59-3.83,2.35-5.75c0.54-1.37,1.09-2.74,1.6-4.12c0.75-2.01,1.46-4.04,2.16-6.07c0.45-1.32,0.92-2.62,1.35-3.95
				c0.73-2.22,1.39-4.47,2.06-6.71c0.34-1.15,0.7-2.29,1.03-3.44c0.88-3.13,1.7-6.29,2.45-9.45c0.06-0.27,0.14-0.53,0.21-0.8
				c0.81-3.44,1.55-6.9,2.22-10.36c0.21-1.11,0.39-2.22,0.59-3.33c0.43-2.37,0.85-4.75,1.21-7.13c0.21-1.35,0.37-2.71,0.56-4.07
				c0.29-2.15,0.58-4.3,0.82-6.46c0.16-1.45,0.29-2.91,0.43-4.37c0.2-2.07,0.38-4.15,0.53-6.23c0.11-1.49,0.19-2.99,0.27-4.48
				c0.11-2.06,0.2-4.12,0.26-6.18c0.05-1.5,0.08-2.99,0.11-4.49c0.01-0.84,0.06-1.69,0.06-2.53
				C470.27,267.67,470.23,266.56,470.22,265.46z M429.91,272.51c-0.02,1.5-0.06,2.99-0.11,4.49c-0.06,2.06-0.15,4.12-0.26,6.18
				c-0.08,1.49-0.17,2.99-0.27,4.48c-0.15,2.08-0.33,4.15-0.53,6.23c-0.14,1.46-0.27,2.91-0.43,4.37c-0.24,2.16-0.53,4.31-0.82,6.46
				c-0.18,1.36-0.35,2.71-0.56,4.07c-0.36,2.38-0.78,4.76-1.21,7.13c-0.2,1.11-0.37,2.22-0.59,3.33c-0.67,3.47-1.41,6.93-2.22,10.36
				c-0.06,0.27-0.14,0.53-0.21,0.8c-0.76,3.17-1.58,6.32-2.45,9.45c-0.32,1.15-0.69,2.29-1.03,3.44c-0.66,2.24-1.33,4.48-2.06,6.71
				c-0.43,1.32-0.9,2.63-1.36,3.95c-0.7,2.03-1.41,4.06-2.16,6.07c-0.52,1.38-1.06,2.75-1.6,4.12c-0.76,1.93-1.54,3.85-2.35,5.75
				c-0.59,1.39-1.2,2.77-1.81,4.15c-0.84,1.87-1.7,3.74-2.58,5.59c-0.65,1.36-1.31,2.72-1.98,4.07c-0.93,1.86-1.9,3.7-2.88,5.54
				c-0.69,1.3-1.38,2.6-2.1,3.89c-1.05,1.89-2.15,3.75-3.26,5.61c-0.72,1.2-1.41,2.41-2.15,3.6c-1.26,2.02-2.57,4.02-3.89,6.01
				c-0.65,0.98-1.28,1.98-1.94,2.95c-2.02,2.94-4.1,5.85-6.26,8.7c-2.12,2.8-4.31,5.51-6.52,8.16c-0.63,0.75-1.27,1.49-1.9,2.23
				c-1.76,2.05-3.54,4.05-5.35,6.01c-0.56,0.6-1.11,1.22-1.67,1.81c-2.31,2.44-4.65,4.81-7.03,7.1c-0.5,0.48-1,0.93-1.5,1.4
				c-1.96,1.85-3.94,3.64-5.95,5.39c-0.72,0.63-1.44,1.25-2.16,1.86c-2.22,1.88-4.46,3.71-6.73,5.47c-0.3,0.23-0.58,0.47-0.88,0.7
				c-2.55,1.95-5.15,3.82-7.76,5.62c-0.72,0.5-1.44,0.97-2.17,1.46c-2.05,1.37-4.11,2.7-6.2,3.98c-0.71,0.44-1.42,0.88-2.13,1.31
				c-2.68,1.6-5.39,3.15-8.13,4.6c-0.42,0.23-0.86,0.43-1.28,0.65c-2.36,1.23-4.74,2.4-7.13,3.52c-0.82,0.38-1.63,0.76-2.45,1.13
				c-2.33,1.05-4.67,2.05-7.02,2.99c-0.53,0.21-1.05,0.44-1.57,0.65c-2.83,1.1-5.69,2.13-8.56,3.08c-0.73,0.24-1.47,0.46-2.2,0.7
				c-1.92,0.61-3.85,1.17-5.79,1.72c-2.04,0.57-4.1,1.1-6.15,1.6c-1.44,0.35-2.89,0.71-4.33,1.02c-2.14,0.46-4.29,0.86-6.44,1.24
				c-1.37,0.24-2.74,0.51-4.12,0.72c-0.4,0.06-0.79,0.09-1.19,0.15c-0.14-0.01-0.28-0.02-0.42-0.03c-1.25-0.11-2.5-0.25-3.76-0.38
				c-2.25-0.25-4.5-0.55-6.75-0.88c-1.22-0.18-2.44-0.36-3.66-0.57c-2.49-0.43-4.97-0.93-7.45-1.46c-0.93-0.2-1.86-0.37-2.79-0.58
				c-3.36-0.78-6.71-1.66-10.05-2.64c-0.62-0.18-1.23-0.41-1.85-0.6c-1.59-0.49-3.17-1-4.75-1.53c-0.01-0.02-0.02-0.04-0.03-0.05
				c-1.11-0.37-2.23-0.71-3.33-1.1c-1.13-0.41-2.26-0.86-3.39-1.29c-2.19-0.84-4.37-1.71-6.54-2.63c-1.21-0.52-2.42-1.06-3.63-1.6
				c-2.12-0.96-4.23-1.97-6.33-3.02c-1.15-0.57-2.3-1.14-3.45-1.74c-2.36-1.24-4.69-2.55-7.02-3.9c-0.83-0.48-1.67-0.93-2.5-1.43
				c-3.13-1.88-6.22-3.85-9.28-5.93c-0.67-0.46-1.32-0.96-1.99-1.42c-2.39-1.67-4.76-3.38-7.1-5.17c-1.04-0.8-2.07-1.63-3.1-2.46
				c-1.96-1.56-3.91-3.16-5.83-4.81c-1.42-1.22-2.84-2.45-4.25-3.72c-0.69-0.62-1.38-1.24-2.07-1.88c-2.31-2.14-4.59-4.33-6.84-6.61
				c-2.45-2.48-4.82-5.03-7.14-7.61c-0.75-0.84-1.47-1.7-2.21-2.55c-1.54-1.78-3.07-3.56-4.56-5.38c-0.84-1.02-1.65-2.07-2.46-3.1
				c-1.34-1.7-2.66-3.41-3.95-5.15c-0.82-1.1-1.62-2.21-2.42-3.32c-1.23-1.71-2.42-3.45-3.6-5.19c-0.79-1.18-1.59-2.36-2.36-3.55
				c-1.17-1.81-2.3-3.64-3.42-5.48c-0.7-1.14-1.41-2.28-2.08-3.43c-1.21-2.07-2.37-4.17-3.52-6.27c-0.52-0.95-1.06-1.89-1.57-2.84
				c-1.63-3.07-3.2-6.18-4.69-9.32c-0.11-0.24-0.21-0.48-0.32-0.72c-1.33-2.83-2.61-5.69-3.84-8.57c-0.43-1.01-0.84-2.04-1.26-3.06
				c-0.88-2.15-1.74-4.3-2.56-6.47c-0.44-1.15-0.86-2.31-1.28-3.47c-0.77-2.13-1.51-4.27-2.22-6.42c-0.37-1.12-0.75-2.24-1.11-3.36
				c-0.75-2.36-1.44-4.73-2.12-7.11c-0.27-0.94-0.56-1.88-0.82-2.83c-0.91-3.31-1.75-6.64-2.53-9.98c-0.14-0.62-0.26-1.25-0.4-1.88
				c-0.61-2.74-1.19-5.48-1.72-8.24c-0.22-1.17-0.42-2.35-0.62-3.52c-0.38-2.16-0.75-4.32-1.07-6.49c-0.27-1.76-0.5-3.53-0.73-5.29
				c-0.24-1.87-0.49-3.75-0.69-5.62c-0.19-1.77-0.36-3.55-0.52-5.33c-0.17-1.88-0.33-3.76-0.46-5.64c-0.12-1.78-0.21-3.57-0.3-5.35
				c-0.09-1.88-0.17-3.77-0.23-5.66c-0.05-1.79-0.07-3.57-0.08-5.36c-0.01-1.95-0.02-3.9,0.01-5.85c0.02-1.5,0.06-3,0.11-4.5
				c0.06-2.06,0.15-4.11,0.26-6.17c0.08-1.49,0.17-2.99,0.27-4.48c0.15-2.08,0.33-4.16,0.53-6.24c0.14-1.45,0.27-2.91,0.43-4.36
				c0.24-2.16,0.53-4.31,0.82-6.46c0.18-1.36,0.35-2.72,0.56-4.08c0.36-2.39,0.79-4.77,1.21-7.15c0.2-1.1,0.37-2.21,0.58-3.31
				c0.67-3.47,1.41-6.92,2.22-10.36c0.08-0.34,0.18-0.67,0.26-1.01c0.75-3.1,1.54-6.18,2.4-9.25c0.33-1.16,0.69-2.31,1.04-3.46
				c0.66-2.23,1.33-4.47,2.05-6.68c0.43-1.33,0.91-2.65,1.36-3.97c0.7-2.02,1.4-4.04,2.15-6.05c0.52-1.38,1.06-2.75,1.61-4.13
				c0.76-1.93,1.54-3.85,2.35-5.76c0.59-1.38,1.19-2.76,1.81-4.13c0.84-1.88,1.7-3.75,2.59-5.61c0.65-1.36,1.3-2.71,1.98-4.05
				c0.93-1.86,1.9-3.71,2.88-5.54c0.7-1.3,1.39-2.61,2.11-3.9c1.05-1.88,2.15-3.74,3.26-5.6c0.72-1.2,1.42-2.42,2.16-3.61
				c1.25-2.02,2.57-4.01,3.88-5.99c0.66-0.99,1.28-1.99,1.96-2.97c2.02-2.94,4.1-5.85,6.26-8.7c1.86-2.45,3.76-4.83,5.69-7.17
				c0.96-1.16,1.95-2.29,2.93-3.43c0.9-1.04,1.79-2.08,2.7-3.1c1.33-1.49,2.68-2.95,4.04-4.38c0.48-0.51,0.97-1.01,1.45-1.51
				c1.62-1.67,3.24-3.33,4.89-4.93l0,0c29.75-28.9,65.41-46.28,102.36-51.74c0.31,0.03,0.62,0.03,0.93,0.06
				c0.63,0.06,1.26,0.09,1.88,0.16c3.3,0.33,6.59,0.77,9.87,1.29c0.69,0.11,1.38,0.24,2.07,0.36c2.88,0.49,5.76,1.05,8.62,1.69
				c0.52,0.12,1.04,0.22,1.56,0.34c3.19,0.74,6.36,1.58,9.52,2.5c0.73,0.21,1.46,0.44,2.19,0.66c2.88,0.88,5.75,1.82,8.61,2.85
				c0.38,0.14,0.76,0.26,1.14,0.4c3.13,1.15,6.24,2.42,9.33,3.76c0.74,0.32,1.48,0.65,2.21,0.98c2.96,1.33,5.91,2.71,8.82,4.21
				c0.18,0.09,0.36,0.17,0.54,0.27c3.05,1.58,6.07,3.28,9.07,5.04c0.72,0.43,1.44,0.86,2.16,1.29c3,1.81,5.98,3.69,8.91,5.69
				c0.1,0.06,0.19,0.14,0.28,0.2c2.85,1.95,5.67,4.03,8.46,6.16c0.68,0.52,1.37,1.05,2.05,1.58c2.83,2.22,5.64,4.51,8.4,6.92
				c1.3,1.14,2.58,2.32,3.87,3.5c0.67,0.62,1.35,1.21,2.02,1.84c1.96,1.85,3.9,3.74,5.82,5.68c2.45,2.48,4.82,5.03,7.14,7.61
				c0.76,0.84,1.48,1.71,2.22,2.56c1.54,1.77,3.07,3.55,4.55,5.37c0.84,1.03,1.65,2.07,2.47,3.11c1.34,1.7,2.66,3.41,3.94,5.15
				c0.82,1.1,1.62,2.21,2.42,3.32c1.23,1.72,2.42,3.45,3.6,5.2c0.79,1.18,1.59,2.35,2.36,3.54c1.17,1.81,2.3,3.64,3.42,5.48
				c0.7,1.14,1.41,2.28,2.09,3.43c1.21,2.06,2.37,4.16,3.52,6.26c0.52,0.96,1.07,1.9,1.58,2.86c1.63,3.08,3.2,6.19,4.7,9.33
				c0.1,0.2,0.18,0.41,0.28,0.61c1.35,2.86,2.64,5.76,3.89,8.67c0.43,1.01,0.84,2.04,1.25,3.06c0.88,2.15,1.74,4.31,2.57,6.48
				c0.44,1.15,0.86,2.3,1.28,3.46c0.77,2.13,1.51,4.28,2.23,6.43c0.37,1.12,0.75,2.23,1.1,3.35c0.75,2.35,1.44,4.72,2.12,7.1
				c0.27,0.95,0.57,1.89,0.83,2.85c0.91,3.31,1.75,6.64,2.53,9.99c0.14,0.59,0.25,1.19,0.38,1.78c0.62,2.77,1.21,5.55,1.74,8.34
				c0.22,1.17,0.41,2.34,0.62,3.51c0.38,2.17,0.75,4.33,1.08,6.51c0.27,1.76,0.5,3.53,0.73,5.29c0.25,1.87,0.49,3.75,0.69,5.63
				c0.2,1.77,0.36,3.55,0.52,5.33c0.17,1.88,0.33,3.76,0.46,5.65c0.12,1.78,0.21,3.57,0.3,5.35c0.09,1.89,0.17,3.77,0.23,5.66
				c0.05,1.78,0.07,3.57,0.08,5.35C429.93,268.61,429.94,270.56,429.91,272.51z"/>
			<g>
				<path class="st2" d="M421.13,418.79c-72.62,95.83-199.21,104.8-282.75,20.03C54.86,354.09,46,207.69,118.62,111.87
					C191.21,16.07,317.81,7.1,401.33,91.84C484.87,176.6,493.73,323,421.13,418.79z"/>
			</g>
			<path class="st3" d="M443.11,441.1c-83.17,109.76-228.18,120.06-323.86,22.97S13.44,199.29,96.61,89.54
				C179.79-20.22,324.77-30.49,420.45,66.59C516.14,163.68,526.29,331.34,443.11,441.1z M118.62,111.87
				C46,207.69,54.86,354.09,138.38,438.83c83.54,84.76,210.14,75.79,282.75-20.03c72.6-95.8,63.74-242.2-19.8-326.96
				C317.81,7.1,191.21,16.07,118.62,111.87"/>
			<path class="st4" d="M396.22,96.22c83.54,84.76,92.4,231.16,19.8,326.96c-3.81,5.03-7.8,9.76-11.89,14.3
				c5.54-5.82,10.87-12.02,15.92-18.68c72.59-95.8,63.74-242.2-19.8-326.96c-79.14-80.29-196.92-76.39-270.83,5.74
				C203.53,19.7,318.51,17.37,396.22,96.22z"/>
		</g>
		<g>
			<path class="st0" d="M189.39,277.42h2.05l1.74,13.64h-3.78c-9.28,0-16.82,7.55-16.82,16.82c0,9.28,7.55,16.82,16.82,16.82
				l10.97-0.01l4.14,13.65h-15.11c-16.83,0-30.47-13.64-30.47-30.46l0,0C158.92,291.06,172.56,277.42,189.39,277.42z"/>
			<path class="st1" d="M156.84,307.88c0-17.94,14.6-32.54,32.54-32.54h1.78l2.26,17.8h-4.05c-8.13,0-14.75,6.61-14.75,14.75
				c0,8.13,6.61,14.75,14.75,14.75h10.34l5.4,17.8h-15.74C171.44,340.42,156.84,325.83,156.84,307.88z M200.99,326.78h-11.6
				c-10.42,0-18.9-8.48-18.9-18.9c0-10.42,8.48-18.9,18.9-18.9h3.41l-1.21-9.48h-2.19c-15.65,0-28.39,12.73-28.39,28.39
				c0,15.65,12.73,28.39,28.39,28.39h14.48L200.99,326.78z"/>
		</g>
		<g>
			<g>
				<path class="st0" d="M342.44,228.94H198.06c-2.7,10-4.18,20.67-4.18,31.76c0,34.31,13.99,94.63,35.45,119.27
					c3.83,4.39,9.69,6.85,15.8,6.85h50.25c6.11,0,11.97-2.46,15.8-6.85c21.46-24.63,35.45-84.96,35.45-119.27
					C346.62,249.61,345.14,238.94,342.44,228.94z"/>
				<path class="st1" d="M226.65,381.95c-22.43-25.75-36.2-87.97-36.2-121.25c0-11.06,1.44-22,4.28-32.53l0.65-2.4h149.74l0.65,2.4
					c2.84,10.52,4.28,21.47,4.28,32.52c0,33.27-13.77,95.5-36.2,121.25c-4.45,5.1-11.18,8.03-18.47,8.03h-50.25
					C237.83,389.98,231.1,387.05,226.65,381.95z M200.77,232.1c-2.3,9.28-3.46,18.89-3.46,28.6c0,47.99,20.21,100.66,34.69,117.29
					c3.14,3.6,7.92,5.67,13.12,5.67h50.25c5.2,0,9.99-2.07,13.12-5.67c21.49-24.67,34.69-84.94,34.69-117.29
					c0-9.71-1.16-19.31-3.46-28.6H200.77z"/>
			</g>
			<path class="st3" d="M339.76,260.7c0-8.61-0.94-17.15-2.79-25.44h-15.04h-22.3h-96.09c-1.86,8.29-2.79,16.82-2.79,25.44
				c0,30.08,10.76,76.65,25.76,103.35c3.02,5.37,9,8.75,15.56,8.75h56.37c6.56,0,12.54-3.39,15.56-8.75
				c5.44-9.68,10.32-21.98,14.33-35.16c0.6-0.62,1.09-1.53,1.36-2.66c1.05-4.42,2.07-9,3.07-13.67c1.9-7.92,3.46-15.89,4.62-23.59
				c0.33-1.86,0.66-3.73,0.98-5.61c0.13-0.74,0.14-1.49,0.07-2.19C339.29,273.87,339.76,266.93,339.76,260.7z"/>
			<g>
				<path class="st1" d="M204.46,228.94h21.21c-1.86,8.67-2.79,17.59-2.79,26.61c0,31.46,10.76,80.18,25.76,108.1
					c3.02,5.61,9,9.16,15.56,9.16h-22.3c-6.56,0-12.54-3.54-15.56-9.16c-15-27.93-25.19-76.64-25.19-108.1
					C201.15,246.54,202.61,237.61,204.46,228.94z"/>
			</g>
			<g>
				<path class="st0" d="M173.6,209.39c0,9.71,3.61,18.85,10.36,25.9c7.14,7.45,16.76,11.55,27.08,11.55c3.35,0,6.67-0.44,9.87-1.32
					c1.84-0.5,3.74-0.15,5.2,0.97c1.37,1.05,2.13,2.58,2.13,4.33v29.05c0,11.37,9.26,20.62,20.64,20.62
					c11.38,0,20.63-9.25,20.63-20.62v-34.89c0-3.18,2.59-5.78,5.78-5.78h13.31c3.19,0,5.78,2.59,5.78,5.78v13.72
					c0,11.37,9.26,20.62,20.64,20.62c11.38,0,20.64-9.25,20.64-20.62v-13.72c0-3.18,2.59-5.78,5.78-5.78
					c12.39,0,22.94-8.93,24.53-20.77c0.15-1.12,0.2-2.22,0.2-3.31h0.02c0-0.13-0.02-0.25-0.02-0.37c-0.01-0.56-0.04-1.11-0.08-1.66
					c-0.02-0.2-0.03-0.4-0.05-0.6c-0.93-8.61-6.37-16.03-14.37-19.45c-0.2-0.09-0.4-0.16-0.6-0.24c-0.26-0.1-0.5-0.22-0.76-0.31
					c0.4-4.31-0.04-8.6-1.31-12.78c-4.07-13.31-16.04-22.9-29.8-23.86c-6.37-0.44-12.55,0.86-18.07,3.78
					c-0.42-0.58-0.87-1.13-1.32-1.68c-0.15-0.18-0.29-0.36-0.44-0.54c-0.4-0.48-0.81-0.95-1.23-1.41c-0.3-0.33-0.6-0.64-0.91-0.96
					c-0.34-0.35-0.67-0.7-1.02-1.03c-0.69-0.67-1.41-1.32-2.14-1.94c-0.06-0.05-0.13-0.1-0.19-0.15c-0.75-0.63-1.53-1.23-2.32-1.81
					c-0.11-0.08-0.22-0.16-0.33-0.23c-0.84-0.6-1.69-1.17-2.57-1.7c0,0,0,0-0.01,0c-2.83-1.72-5.85-3.11-9.02-4.15
					c-0.03-0.01-0.06-0.02-0.09-0.03c-2.06-0.67-4.17-1.18-6.34-1.53c-0.2-0.03-0.4-0.06-0.59-0.09c-0.85-0.13-1.7-0.23-2.55-0.3
					c-0.26-0.02-0.52-0.05-0.78-0.07c-1.05-0.08-2.11-0.13-3.18-0.13c-19.76,0-37.08,13.67-41.98,32.43
					c-0.28-0.1-0.57-0.17-0.85-0.27c-0.72-0.25-1.44-0.48-2.17-0.69c-0.46-0.13-0.92-0.23-1.38-0.34c-0.72-0.17-1.44-0.33-2.17-0.46
					c-0.5-0.09-1.01-0.16-1.51-0.22c-0.69-0.09-1.38-0.17-2.08-0.23c-0.57-0.04-1.13-0.06-1.7-0.08c-0.4-0.01-0.79-0.06-1.19-0.06
					c-0.41,0-0.82,0.02-1.23,0.03c-0.08,0-0.17-0.01-0.25,0c-0.05,0-0.1,0.01-0.15,0.01c-1.08,0.05-2.15,0.14-3.2,0.28
					c-0.13,0.02-0.26,0.03-0.39,0.05c-1.09,0.15-2.17,0.36-3.24,0.6c-0.05,0.01-0.11,0.02-0.16,0.04
					c-13.7,3.23-24.51,13.98-27.81,27.64c-0.02,0.07-0.03,0.15-0.05,0.22c-0.25,1.05-0.46,2.12-0.61,3.2
					c-0.02,0.13-0.03,0.25-0.05,0.38c-0.14,1.07-0.25,2.14-0.3,3.24c0,0.03-0.01,0.06-0.01,0.09c0,0.07,0,0.13,0,0.2
					c-0.02,0.49-0.04,0.97-0.04,1.47H173.6z"/>
			</g>
			<path class="st1" d="M173.6,209.39c0,9.71,3.61,18.85,10.36,25.9c7.14,7.45,16.76,11.55,27.08,11.55c3.35,0,6.67-0.44,9.87-1.32
				c1.84-0.5,3.74-0.15,5.2,0.97c1.37,1.05,2.13,2.58,2.13,4.33v29.05c0,11.37,9.26,20.62,20.64,20.62
				c11.38,0,20.63-9.25,20.63-20.62v-34.89c0-3.18,2.59-5.78,5.78-5.78h13.31c3.19,0,5.78,2.59,5.78,5.78v13.72
				c0,11.37,9.26,20.62,20.64,20.62c11.38,0,20.64-9.25,20.64-20.62v-13.72c0-3.18,2.59-5.78,5.78-5.78
				c12.39,0,22.94-8.93,24.53-20.77c0.15-1.12,0.2-2.22,0.2-3.31h0.02c0-0.13-0.02-0.25-0.02-0.37c-0.01-0.56-0.04-1.11-0.08-1.66
				c-0.02-0.2-0.03-0.4-0.05-0.6c-0.93-8.61-6.37-16.03-14.37-19.45c-0.2-0.09-0.4-0.16-0.6-0.24c-0.26-0.1-0.5-0.22-0.76-0.31
				c0.4-4.31-0.04-8.6-1.31-12.78c-4.07-13.31-16.04-22.9-29.8-23.86c-6.37-0.44-12.55,0.86-18.07,3.78
				c-0.42-0.58-0.87-1.13-1.32-1.68c-0.15-0.18-0.29-0.36-0.44-0.54c-0.4-0.48-0.81-0.95-1.23-1.41c-0.3-0.33-0.6-0.64-0.91-0.96
				c-0.34-0.35-0.67-0.7-1.02-1.03c-0.69-0.67-1.41-1.32-2.14-1.94c-0.06-0.05-0.13-0.1-0.19-0.15c-0.75-0.63-1.53-1.23-2.32-1.81
				c-0.11-0.08-0.22-0.16-0.33-0.23c-0.84-0.6-1.69-1.17-2.57-1.7c0,0,0,0-0.01,0c-2.83-1.72-5.85-3.11-9.02-4.15
				c-0.03-0.01-0.06-0.02-0.09-0.03c-2.06-0.67-4.17-1.18-6.34-1.53c-0.2-0.03-0.4-0.06-0.59-0.09c-0.85-0.13-1.7-0.23-2.55-0.3
				c-0.26-0.02-0.52-0.05-0.78-0.07c-1.05-0.08-2.11-0.13-3.18-0.13c-19.76,0-37.08,13.67-41.98,32.43
				c-0.28-0.1-0.57-0.17-0.85-0.27c-0.72-0.25-1.44-0.48-2.17-0.69c-0.46-0.13-0.92-0.23-1.38-0.34c-0.72-0.17-1.44-0.33-2.17-0.46
				c-0.5-0.09-1.01-0.16-1.51-0.22c-0.69-0.09-1.38-0.17-2.08-0.23c-0.57-0.04-1.13-0.06-1.7-0.08c-0.4-0.01-0.79-0.06-1.19-0.06
				c-0.41,0-0.82,0.02-1.23,0.03c-0.08,0-0.17-0.01-0.25,0c-0.05,0-0.1,0.01-0.15,0.01c-1.08,0.05-2.15,0.14-3.2,0.28
				c-0.13,0.02-0.26,0.03-0.39,0.05c-1.09,0.15-2.17,0.36-3.24,0.6c-0.05,0.01-0.11,0.02-0.16,0.04
				c-13.7,3.23-24.51,13.98-27.81,27.64c-0.02,0.07-0.03,0.15-0.05,0.22c-0.25,1.05-0.46,2.12-0.61,3.2
				c-0.02,0.13-0.03,0.25-0.05,0.38c-0.14,1.07-0.25,2.14-0.3,3.24c0,0.03-0.01,0.06-0.01,0.09c0,0.07,0,0.13,0,0.2
				c-0.02,0.49-0.04,0.97-0.04,1.47H173.6z M180.45,208.73c0.01-0.56,0.04-1.11,0.08-1.66c0.03-0.45,0.07-0.9,0.12-1.34
				c0.07-0.54,0.15-1.08,0.25-1.61c0.08-0.46,0.16-0.92,0.26-1.38c0.1-0.46,0.23-0.92,0.35-1.38c0.14-0.52,0.28-1.04,0.45-1.54
				c0.11-0.34,0.24-0.66,0.36-0.99c0.23-0.61,0.45-1.22,0.72-1.81c0.07-0.17,0.16-0.33,0.24-0.49c3.12-6.65,8.56-12.02,15.27-15.05
				c0.04-0.02,0.09-0.04,0.13-0.06c0.66-0.29,1.34-0.54,2.02-0.79c0.26-0.09,0.52-0.2,0.78-0.29c0.55-0.18,1.11-0.33,1.67-0.48
				c0.42-0.11,0.83-0.23,1.25-0.32c0.48-0.11,0.96-0.19,1.45-0.27c0.51-0.09,1.03-0.18,1.55-0.24c0.45-0.05,0.91-0.09,1.37-0.12
				c0.63-0.05,1.26-0.09,1.9-0.1c0.21,0,0.42-0.01,0.63,0c0.86,0.01,1.72,0.05,2.58,0.13c0.19,0.02,0.39,0.05,0.58,0.07
				c0.68,0.08,1.35,0.18,2.02,0.3c0.28,0.05,0.55,0.1,0.83,0.16c0.79,0.16,1.56,0.35,2.33,0.58c0.25,0.07,0.49,0.16,0.74,0.24
				c0.58,0.19,1.16,0.39,1.73,0.61c0.28,0.11,0.56,0.21,0.83,0.33c0.75,0.32,1.49,0.66,2.22,1.03l0.21,0.11
				c2.57,1.36,4.96,3.1,7.08,5.17c1.2,1.17,3.08,1.26,4.35,0.18l0.29-0.24c1.45-1.22,1.57-3.44,0.22-4.77
				c-2.09-2.05-4.41-3.8-6.88-5.3c3.62-16.5,18.53-28.68,35.64-28.68v0c0.91,0,1.82,0.04,2.72,0.11c0.23,0.02,0.47,0.05,0.7,0.07
				c0.69,0.06,1.37,0.14,2.05,0.24c0.23,0.03,0.46,0.07,0.68,0.11c0.73,0.12,1.46,0.27,2.18,0.44c0.14,0.03,0.28,0.06,0.41,0.09
				c2.7,0.66,5.28,1.62,7.72,2.85c0.06,0.03,0.12,0.06,0.18,0.09c0.74,0.38,1.46,0.78,2.16,1.2c0.1,0.06,0.2,0.12,0.3,0.18
				c0.68,0.42,1.35,0.86,2,1.32c0.09,0.06,0.18,0.12,0.27,0.19c0.72,0.52,1.42,1.06,2.1,1.63c0.15,0.13,0.29,0.26,0.44,0.39
				c0.47,0.4,0.93,0.82,1.38,1.25c0.38,0.37,0.75,0.75,1.11,1.13c0.19,0.19,0.37,0.39,0.56,0.59c0.42,0.46,0.83,0.94,1.23,1.42
				c0.09,0.11,0.19,0.23,0.28,0.35c0.44,0.55,0.87,1.11,1.29,1.69c0.01,0.01,0.01,0.02,0.02,0.02c0.45,0.64,0.89,1.29,1.3,1.97
				l0.14,0.22c1.35,2.22,2.48,4.59,3.34,7.1c0.54,1.59,2.22,2.5,3.85,2.09l0.37-0.09c1.83-0.46,2.9-2.39,2.29-4.17
				c-0.67-1.97-1.49-3.86-2.42-5.69c4.3-2.18,9.08-3.16,13.99-2.82c10.94,0.76,20.47,8.41,23.71,19.02c0.94,3.08,1.31,6.23,1.1,9.41
				c-0.48-0.03-0.96-0.07-1.44-0.07c-2.73,0-5.43,0.46-7.99,1.36c-1.91,0.67-2.79,2.86-1.83,4.64l0.18,0.32
				c0.78,1.43,2.48,2,4.03,1.47c1.8-0.62,3.7-0.94,5.61-0.94c1.15,0,2.26,0.12,3.35,0.33l0.32,0.07c0.03,0.01,0.06,0.02,0.09,0.02
				c0.51,0.11,1.01,0.25,1.5,0.4c0.3,0.1,0.59,0.21,0.88,0.32c0.2,0.07,0.4,0.14,0.59,0.22c4.11,1.75,7.4,5.04,9.15,9.15
				c0,0.01,0.01,0.02,0.01,0.02c0.2,0.47,0.37,0.95,0.53,1.44c0.04,0.13,0.08,0.25,0.11,0.38c0.11,0.37,0.21,0.75,0.29,1.14
				c0.05,0.21,0.08,0.42,0.12,0.63c0.06,0.32,0.11,0.64,0.15,0.97c0.03,0.25,0.06,0.51,0.08,0.76c0.02,0.3,0.04,0.61,0.05,0.91
				c0.02,0.94-0.01,1.89-0.14,2.86c-1.13,8.45-8.75,14.82-17.73,14.82c-6.97,0-12.64,5.67-12.64,12.63v13.72
				c0,7.59-6.18,13.76-13.77,13.76c-7.6,0-13.77-6.17-13.77-13.76v-13.72c0-6.96-5.67-12.63-12.64-12.63h-13.31
				c-6.97,0-12.64,5.67-12.64,12.63v34.89c0,7.59-6.18,13.76-13.77,13.76c-7.6,0-13.77-6.17-13.77-13.76v-29.05
				c0-3.87-1.76-7.44-4.83-9.78c-3.18-2.42-7.25-3.2-11.17-2.13c-2.61,0.71-5.33,1.07-8.06,1.07c-8.43,0-16.29-3.35-22.12-9.44
				C183.25,224.63,180.27,216.91,180.45,208.73z"/>
			<g>
				<path class="st1" d="M212.14,210.61c2.17-8.35,10.78-13.74,19.25-12.06c7.66,1.53,12.98,8.09,13.31,15.49
					c0.1,2.29-1.97,4.07-4.2,3.55c-1.53-0.35-2.58-1.69-2.65-3.25c-0.19-4.24-3.18-8.01-7.51-9.01c-5.21-1.19-10.41,2.07-11.61,7.27
					c-0.99,4.33,1.11,8.67,4.84,10.68c1.38,0.74,2.12,2.28,1.77,3.8c-0.51,2.23-3.02,3.32-5.03,2.23
					C213.78,225.81,210.18,218.16,212.14,210.61z"/>
				<path class="st1" d="M260.58,190.86c1.65-2.15,3.75-3.92,6.2-5.22c8.8-4.66,19.62-1.74,24.96,6.44
					c5.96-1.71,12.56-1.15,18.4,2.07c10.57,5.83,15.09,18.43,11.13,29.43c-0.69,1.92-2.93,2.78-4.72,1.8l-0.23-0.13
					c-1.46-0.8-2.02-2.54-1.47-4.1c3-8.54-1.07-18.37-10.04-21.95c-7.41-2.96-16.13-0.35-20.66,6.21c-1.97,2.85-3.04,6.09-3.14,9.42
					c-0.05,1.66-1.2,3.07-2.85,3.3l-0.27,0.04c-2.03,0.28-3.8-1.35-3.75-3.4c0.09-3.86,1.11-7.63,3.02-11.08
					c2.03-3.67,4.88-6.61,8.2-8.72c-3.59-4.56-10.05-6.06-15.37-3.25c-1.55,0.82-2.88,1.94-3.93,3.29
					c-0.98,1.26-2.71,1.66-4.16,0.98C259.97,195.04,259.28,192.55,260.58,190.86z"/>
			</g>
		</g>
	</g>
</g>
</svg>
